<?xml version="1.0" encoding="UTF-8"?>
<svg xmlns="http://www.w3.org/2000/svg" xmlns:xlink="http://www.w3.org/1999/xlink" width="28px" height="28px" viewBox="0 0 28 28" version="1.1">
<g id="surface1">
<path style=" stroke:none;fill-rule:nonzero;fill:rgb(0%,0%,0%);fill-opacity:1;" d="M 11.480469 3.921875 C 11.574219 3.921875 11.664062 3.921875 11.761719 3.921875 C 11.769531 4.03125 11.777344 4.140625 11.785156 4.253906 C 11.863281 4.644531 11.863281 4.644531 12.214844 4.8125 C 12.632812 4.90625 12.890625 4.875 13.300781 4.761719 C 13.371094 5.039062 13.371094 5.039062 13.441406 5.320312 C 13.601562 5.308594 13.761719 5.296875 13.929688 5.285156 C 14.613281 5.28125 15.101562 5.535156 15.679688 5.878906 C 15.679688 5.972656 15.679688 6.066406 15.679688 6.160156 C 15.78125 6.199219 15.882812 6.234375 15.984375 6.273438 C 16.378906 6.441406 16.378906 6.441406 16.738281 6.660156 C 17.519531 7.117188 18.324219 7.003906 19.203125 6.992188 C 19.738281 7 19.738281 7 20.242188 7.085938 C 20.78125 7.148438 21.085938 7.0625 21.585938 6.867188 C 22.101562 6.671875 22.398438 6.578125 22.960938 6.578125 C 22.960938 6.488281 22.960938 6.394531 22.960938 6.300781 C 23.042969 6.289062 23.125 6.277344 23.210938 6.261719 C 24.015625 6.121094 24.347656 5.921875 24.921875 5.320312 C 25.382812 5.207031 25.382812 5.207031 25.761719 5.179688 C 25.898438 5.84375 25.898438 5.84375 25.898438 6.160156 C 26.039062 6.160156 26.175781 6.160156 26.320312 6.160156 C 26.320312 6.253906 26.320312 6.34375 26.320312 6.441406 C 26.414062 6.441406 26.503906 6.441406 26.601562 6.441406 C 26.601562 6.71875 26.601562 6.996094 26.601562 7.28125 C 26.492188 7.308594 26.378906 7.335938 26.265625 7.367188 C 25.855469 7.53125 25.855469 7.53125 25.714844 7.996094 C 25.667969 8.195312 25.667969 8.195312 25.621094 8.398438 C 25.527344 8.398438 25.433594 8.398438 25.339844 8.398438 C 25.339844 8.492188 25.339844 8.585938 25.339844 8.679688 C 25.1875 8.742188 25.035156 8.800781 24.875 8.863281 C 24.332031 9.09375 24.332031 9.09375 23.941406 9.519531 C 23.90625 9.886719 23.90625 9.886719 23.941406 10.21875 C 24.03125 10.21875 24.125 10.21875 24.21875 10.21875 C 24.21875 10.359375 24.21875 10.496094 24.21875 10.640625 C 24.128906 10.640625 24.035156 10.640625 23.941406 10.640625 C 23.941406 10.730469 23.941406 10.824219 23.941406 10.921875 C 23.847656 10.921875 23.753906 10.921875 23.660156 10.921875 C 23.613281 11.058594 23.566406 11.195312 23.519531 11.339844 C 23.160156 11.664062 23.035156 11.761719 22.539062 11.761719 C 22.539062 11.992188 22.539062 12.222656 22.539062 12.460938 C 22.449219 12.460938 22.355469 12.460938 22.261719 12.460938 C 22.292969 12.613281 22.324219 12.765625 22.355469 12.921875 C 22.398438 13.441406 22.398438 13.441406 22.242188 13.710938 C 21.90625 13.902344 21.660156 13.890625 21.28125 13.859375 C 21.234375 14.089844 21.1875 14.320312 21.140625 14.558594 C 20.074219 14.734375 20.074219 14.734375 19.601562 14.421875 C 19.546875 14.636719 19.5 14.855469 19.453125 15.078125 C 19.421875 15.199219 19.394531 15.320312 19.367188 15.445312 C 19.300781 15.824219 19.300781 15.824219 19.398438 16.203125 C 19.417969 16.308594 19.4375 16.410156 19.460938 16.519531 C 19.371094 16.597656 19.28125 16.675781 19.1875 16.757812 C 18.867188 17.050781 18.867188 17.050781 18.886719 17.410156 C 18.894531 17.535156 18.902344 17.660156 18.910156 17.789062 C 18.925781 18.160156 18.925781 18.160156 18.898438 18.480469 C 18.550781 18.777344 18.550781 18.777344 18.199219 18.898438 C 18.246094 19.316406 18.246094 19.316406 18.339844 19.738281 C 18.433594 19.785156 18.523438 19.832031 18.621094 19.878906 C 18.59375 20.132812 18.59375 20.132812 18.480469 20.441406 C 18.007812 20.808594 17.675781 20.910156 17.078125 20.859375 C 17.078125 20.675781 17.078125 20.492188 17.078125 20.300781 C 16.648438 20.386719 16.332031 20.457031 16.058594 20.816406 C 15.921875 21.058594 15.800781 21.308594 15.679688 21.558594 C 16.222656 21.621094 16.222656 21.621094 16.484375 21.351562 C 16.542969 21.28125 16.601562 21.210938 16.660156 21.140625 C 17.03125 21.414062 17.082031 21.574219 17.183594 22.03125 C 17.214844 22.480469 17.199219 22.808594 17.078125 23.238281 C 16.941406 23.238281 16.804688 23.238281 16.660156 23.238281 C 16.660156 23.378906 16.660156 23.515625 16.660156 23.660156 C 16.433594 23.683594 16.203125 23.707031 15.976562 23.730469 C 15.851562 23.742188 15.722656 23.757812 15.59375 23.769531 C 15.109375 23.8125 14.625 23.800781 14.140625 23.800781 C 14.140625 23.890625 14.140625 23.984375 14.140625 24.078125 C 14.046875 24.078125 13.957031 24.078125 13.859375 24.078125 C 13.859375 23.894531 13.859375 23.710938 13.859375 23.519531 C 13.769531 23.519531 13.675781 23.519531 13.578125 23.519531 C 13.578125 23.613281 13.578125 23.703125 13.578125 23.800781 C 13.160156 23.800781 13.160156 23.800781 12.921875 23.609375 C 12.738281 23.378906 12.738281 23.378906 12.738281 23.101562 C 12.601562 23.144531 12.460938 23.191406 12.320312 23.238281 C 12.414062 22.6875 12.503906 22.132812 12.601562 21.558594 C 12.324219 21.492188 12.324219 21.492188 12.039062 21.421875 C 11.851562 21.332031 11.664062 21.238281 11.480469 21.140625 C 11.46875 21.242188 11.457031 21.347656 11.445312 21.453125 C 11.320312 21.910156 11.132812 22.09375 10.78125 22.398438 C 10.640625 22.355469 10.503906 22.308594 10.359375 22.261719 C 10.265625 21.972656 10.265625 21.972656 10.21875 21.699219 C 10.359375 21.699219 10.496094 21.699219 10.640625 21.699219 C 10.640625 21.5625 10.640625 21.421875 10.640625 21.28125 C 10.5 21.28125 10.363281 21.28125 10.21875 21.28125 C 10.171875 21.140625 10.128906 21.003906 10.078125 20.859375 C 9.945312 20.808594 9.945312 20.808594 9.808594 20.753906 C 9.519531 20.578125 9.519531 20.578125 9.34375 20.074219 C 9.308594 19.917969 9.277344 19.761719 9.238281 19.601562 C 8.871094 19.507812 8.5 19.414062 8.121094 19.320312 C 8.121094 19.226562 8.121094 19.136719 8.121094 19.039062 C 7.96875 18.984375 7.96875 18.984375 7.8125 18.925781 C 7.421875 18.761719 7.421875 18.761719 7.085938 18.53125 C 6.617188 18.285156 6.261719 18.308594 5.738281 18.339844 C 5.738281 18.246094 5.738281 18.15625 5.738281 18.058594 C 5.832031 18.058594 5.925781 18.058594 6.019531 18.058594 C 5.945312 17.960938 5.871094 17.863281 5.792969 17.761719 C 5.601562 17.359375 5.601562 17.359375 5.695312 16.914062 C 5.878906 16.519531 5.878906 16.519531 6.160156 16.238281 C 6.160156 16.101562 6.160156 15.960938 6.160156 15.820312 C 6.074219 15.957031 6.074219 15.957031 5.984375 16.101562 C 5.863281 16.238281 5.863281 16.238281 5.738281 16.378906 C 5.554688 16.378906 5.371094 16.378906 5.179688 16.378906 C 5.132812 16.566406 5.085938 16.75 5.039062 16.941406 C 4.621094 16.941406 4.621094 16.941406 4.363281 16.695312 C 4.277344 16.589844 4.191406 16.488281 4.105469 16.378906 C 4.015625 16.277344 3.929688 16.171875 3.839844 16.066406 C 3.742188 15.945312 3.742188 15.945312 3.640625 15.820312 C 3.808594 15.339844 3.96875 15.042969 4.339844 14.699219 C 4.433594 14.5625 4.523438 14.421875 4.621094 14.28125 C 5.546875 14.386719 5.546875 14.386719 6.019531 14.699219 C 5.972656 14.792969 5.925781 14.886719 5.878906 14.980469 C 6.105469 15.003906 6.328125 15.027344 6.554688 15.050781 C 6.679688 15.0625 6.804688 15.074219 6.933594 15.089844 C 7.292969 15.125 7.292969 15.125 7.699219 15.121094 C 7.699219 15.027344 7.699219 14.933594 7.699219 14.839844 C 7.792969 14.792969 7.886719 14.746094 7.980469 14.699219 C 7.980469 14.609375 7.980469 14.515625 7.980469 14.421875 C 7.871094 14.355469 7.761719 14.292969 7.648438 14.226562 C 7.28125 14 7.28125 14 7.167969 13.714844 C 7.019531 13.402344 7.019531 13.402344 6.636719 13.324219 C 6.496094 13.304688 6.355469 13.285156 6.210938 13.265625 C 6.070312 13.242188 5.933594 13.222656 5.785156 13.203125 C 5.679688 13.1875 5.570312 13.175781 5.460938 13.160156 C 5.460938 13.019531 5.460938 12.882812 5.460938 12.738281 C 5.550781 12.738281 5.644531 12.738281 5.738281 12.738281 C 5.761719 12.230469 5.761719 12.230469 5.601562 11.761719 C 5.644531 11.621094 5.691406 11.484375 5.738281 11.339844 C 5.601562 11.246094 5.460938 11.15625 5.320312 11.058594 C 5.390625 10.539062 5.441406 10.246094 5.738281 9.800781 C 5.601562 9.871094 5.601562 9.871094 5.460938 9.941406 C 5.039062 9.964844 5.039062 9.964844 4.621094 9.941406 C 4.527344 9.847656 4.433594 9.753906 4.339844 9.660156 C 3.714844 9.726562 3.125 10.074219 2.640625 10.457031 C 2.378906 10.640625 2.378906 10.640625 1.820312 10.640625 C 1.535156 10.164062 1.488281 9.753906 1.453125 9.203125 C 1.441406 9.054688 1.429688 8.902344 1.421875 8.746094 C 1.414062 8.632812 1.40625 8.519531 1.398438 8.398438 C 1.535156 8.363281 1.671875 8.324219 1.8125 8.285156 C 1.953125 8.230469 2.09375 8.175781 2.238281 8.121094 C 2.285156 7.980469 2.332031 7.84375 2.378906 7.699219 C 2.566406 7.699219 2.75 7.699219 2.941406 7.699219 C 2.984375 7.515625 3.03125 7.332031 3.078125 7.140625 C 3.453125 7.140625 3.828125 7.140625 4.199219 7.140625 C 4.386719 7.097656 4.574219 7.050781 4.761719 7 C 4.761719 7.09375 4.761719 7.183594 4.761719 7.28125 C 5.246094 7.210938 5.246094 7.210938 5.738281 7.140625 C 5.738281 6.816406 5.738281 6.492188 5.738281 6.160156 C 5.925781 6.160156 6.109375 6.160156 6.300781 6.160156 C 6.390625 5.976562 6.484375 5.789062 6.578125 5.601562 C 6.671875 5.644531 6.765625 5.691406 6.859375 5.738281 C 6.859375 5.832031 6.859375 5.925781 6.859375 6.019531 C 7.207031 6.160156 7.207031 6.160156 7.558594 6.300781 C 7.492188 5.953125 7.492188 5.953125 7.421875 5.601562 C 7.652344 5.507812 7.882812 5.414062 8.121094 5.320312 C 8.121094 5.226562 8.121094 5.136719 8.121094 5.039062 C 8.210938 4.992188 8.304688 4.949219 8.398438 4.898438 C 8.445312 4.761719 8.492188 4.621094 8.539062 4.480469 C 8.707031 4.472656 8.871094 4.464844 9.039062 4.453125 C 9.257812 4.441406 9.476562 4.429688 9.695312 4.417969 C 9.804688 4.414062 9.914062 4.40625 10.023438 4.402344 C 10.128906 4.394531 10.234375 4.390625 10.34375 4.382812 C 10.441406 4.378906 10.539062 4.375 10.636719 4.367188 C 10.929688 4.339844 11.199219 4.277344 11.480469 4.199219 C 11.480469 4.109375 11.480469 4.015625 11.480469 3.921875 Z M 10.359375 17.78125 C 10.167969 18.203125 10.167969 18.203125 10.078125 18.621094 C 10.171875 18.621094 10.265625 18.621094 10.359375 18.621094 C 10.359375 18.710938 10.359375 18.804688 10.359375 18.898438 C 10.453125 18.898438 10.542969 18.898438 10.640625 18.898438 C 10.640625 18.992188 10.640625 19.085938 10.640625 19.179688 C 10.726562 19.214844 10.8125 19.25 10.902344 19.285156 C 11.253906 19.492188 11.316406 19.65625 11.480469 20.019531 C 11.5625 20.015625 11.644531 20.011719 11.730469 20.011719 C 12.367188 19.996094 12.859375 20 13.441406 20.300781 C 13.792969 20.476562 14.042969 20.453125 14.4375 20.449219 C 14.628906 20.445312 14.628906 20.445312 14.824219 20.445312 C 14.921875 20.441406 15.019531 20.441406 15.121094 20.441406 C 15.074219 20.210938 15.027344 19.976562 14.980469 19.738281 C 14.933594 19.832031 14.886719 19.925781 14.839844 20.019531 C 14.046875 19.816406 14.046875 19.816406 13.84375 19.476562 C 13.867188 19.042969 14.109375 18.902344 14.421875 18.621094 C 14.421875 18.527344 14.421875 18.433594 14.421875 18.339844 C 14.234375 18.339844 14.050781 18.339844 13.859375 18.339844 C 13.859375 18.246094 13.859375 18.15625 13.859375 18.058594 C 13.691406 18.046875 13.523438 18.03125 13.351562 18.015625 C 12.796875 17.949219 12.402344 17.75 11.898438 17.5 C 11.320312 17.441406 10.859375 17.472656 10.359375 17.78125 Z M 10.359375 17.78125 "/>
</g>
</svg>
