<?xml version="1.0" encoding="UTF-8"?>
<!DOCTYPE svg PUBLIC
	"-//W3C//DTD XHTML 1.1 plus MathML 2.0 plus SVG 1.1//EN"
	"http://www.w3.org/2002/04/xhtml-math-svg/xhtml-math-svg-flat.dtd"[
<!ENTITY % SVG.prefixed "IGNORE" >
<!ENTITY % XHTML.prefixed "INCLUDE" >
<!ENTITY % XHTML.prefix "xhtml" >
<!ENTITY % MATHML.prefixed "INCLUDE" >
<!ENTITY % MATHML.prefix "math" >
]>
<svg xmlns="http://www.w3.org/2000/svg" xml:lang="es" 
	xmlns:xlink="http://www.w3.org/1999/xlink" 
	xmlns:xhtml="http://www.w3.org/1999/xhtml" 
	version="1.1" baseProfile="full" 
	width="100%" height="100%" viewBox="0 0 1024 768">

	<!-- Metadata -->
	<title>España</title>
	<desc xml:lang="es">Mapa de España (península) en SVG para uso como elemento en otros mapas.</desc>
	<desc xml:lang="en">Spain map (peninsula) element for SVG maps.</desc>
	<!-- /Metadata -->

	<!-- Defs -->
	<defs>

		<!-- Spain all -->
		<g id="Spain">

			<!-- path -->
			<path id="SpainPath" d="m 1243.1448,327.56042 c 0.073,-0.12 0.147,-0.24 0.22,-0.36 -0.927,0.08 -0.96,-0.709 -0.702,-1.366 0.416,-1.059 1.168,-0.776 1.832,-1.492 1.285,-1.386 4.062,-0.733 5.851,-1.533 -1.454,0.06 -0.518,-0.354 0,-0.648 -0.308,0.113 -0.621,0.209 -0.94,0.288 -0.215,-0.945 2.96,-3.367 2.96,-1.8 0.48,-0.288 0.96,-0.576 1.44,-0.864 0.119,1.063 4.291,0.578 4.32,2.376 1.273,-1.644 5.001,-0.367 6.76,-0.647 1.513,-0.24 1.903,-0.329 3.491,0.05 1.69,0.403 3.407,0.779 5.128,1.07 2.346,0.397 4.495,0.177 6.644,-0.339 1.358,-0.326 2.963,-0.017 4.153,0.698 1.627,0.976 1.381,-0.377 2.889,-0.269 1.326,0.095 2.621,0.623 3.922,0.873 0.788,0.151 3.133,-0.584 3.479,-0.035 0.376,0.597 2.729,-0.128 2.305,1.313 -0.089,0.305 -0.311,0.67 -0.049,0.967 0.611,0.693 0.457,-0.19 1.108,-0.157 2.05,0.105 3.701,2.188 5.604,2.362 0.43,0.039 0.889,-0.249 1.306,-0.094 0.529,0.197 0.823,0.791 1.407,0.88 1.61,0.247 3.29,0.005 4.912,0.24 -0.083,-0.552 0.037,-1.056 0.36,-1.512 2.04,1.03 4.962,0.968 5.18,3.6 1.137,-0.135 1.852,-0.701 2.96,-0.071 0.328,0.187 0.824,0.792 1.24,0.657 0.483,-0.157 0.978,-0.662 1.537,-0.438 1.066,0.425 1.994,0.89 3.082,0.181 0.896,-0.584 1.397,-0.658 2.412,-0.256 0.576,0.229 0.623,0.973 1.37,0.864 -0.01,0.768 -0.482,0.533 -0.918,0.882 -0.645,0.517 0,1.794 -0.035,2.463 -0.084,1.85 -4.126,3.186 -5.49,3.751 -1.022,0.424 -1.294,1.389 -2.145,1.793 -1.027,0.488 -2.444,0.473 -3.544,0.75 -2.669,0.672 -4.284,1.832 -6.437,3.321 1.673,1.337 0.086,1.592 -1.053,2.245 -1.673,0.959 -2.001,3.271 -3.642,4.32 -2.799,1.789 -3.788,6.915 -1.484,9.364 1.402,1.491 2.533,1.944 0.222,3.388 -1.338,0.836 -2.351,1.188 -3.438,2.38 -0.644,0.706 -1.225,1.787 -1.673,2.815 -0.281,0.645 -0.599,1.368 -0.616,2.084 -0.014,0.597 0.967,1.405 0.374,-0.029 0.915,1.512 -2.808,1.626 -3.528,1.712 -1.739,0.209 -4.152,1.788 -4.572,3.503 -0.36,1.474 -1.584,4.101 -3.163,2.827 -0.965,-0.78 -1.686,0.27 -2.488,0.599 -1.158,0.476 -2.412,-0.24 -3.64,-0.039 -2.56,0.42 -5.112,0.126 -7.728,0.177 -1.397,0.027 -1.707,0.288 -2.721,1.237 -1.16,1.085 -2.687,0.64 -4.027,1.31 -0.668,0.333 -1.324,2.582 -1.922,2.523 -0.746,-0.073 -0.547,1.155 -1.702,1.127 -0.933,-0.022 -1.637,-1.623 -2.527,-1.526 -0.971,0.106 -1.709,-1.924 -1.943,-2.649 1.284,-0.225 -0.313,-1.149 -0.691,-1.441 -0.912,-0.703 0.175,-1.908 1.051,-2.16 -0.547,-0.176 -0.82,0.12 -0.86,0.648 -0.47,-0.501 -4.311,-3.101 -3.46,-3.889 -1.328,-0.146 -0.025,0.555 -1.448,0.587 -0.638,0.015 -1.429,0.256 -2.054,0.027 -0.893,-0.326 -0.862,-2.611 -0.737,-3.35 0.109,-0.646 0.616,-1.13 1.049,-1.575 0.532,-0.547 0.596,-1.407 1.063,-1.866 1.073,-1.055 1.521,-0.241 2.208,-1.887 -1.374,0.454 -2.482,-1.368 -2.52,-2.521 -0.059,-1.792 2.021,-2.666 2.527,-4.249 0.274,-0.857 -1.354,-2.003 -1.737,-2.76 -0.323,-0.639 0,-1.012 -0.475,-1.56 -0.396,-0.46 -0.93,-0.952 -1.186,-1.512 0.913,0.255 1.871,0.072 2.798,0.072 0.963,0 0.7,-0.565 1.036,-1.162 0.419,-0.745 1.736,-2.275 0.34,-3.114 -0.619,-0.372 0.954,-1.017 1.08,-1.076 0.646,-0.308 0.416,-1.224 0.39,-1.779 -0.02,-0.429 0.199,-4.685 -0.36,-4.548 1.002,-0.244 1.45,-1.381 2.439,-1.946 0.613,-0.351 2.996,-1.931 2.812,-2.837 -0.15,-0.74 -1.646,-0.913 -2.189,-1.21 -0.602,-0.329 0.647,-1.565 -0.264,-1.846 -0.645,-0.199 -4.166,-0.566 -4.232,0.073 -0.127,1.225 -2.133,0.771 -2.815,0.493 -1.093,-0.447 -2.165,0.229 -3.24,0.439 -1.688,0.33 -0.827,-1.427 -0.023,-2.008 -0.627,0.084 -0.895,-0.264 -0.79,-0.864 -0.621,0.591 -1.458,0.612 -2.246,0.755 -0.989,0.18 -1.57,0.983 -2.435,1.405 -0.789,-2.063 1.495,-2.287 2.01,-3.889 -0.374,0.704 -1.13,0.925 -1.87,0.937 0.158,-0.823 0.938,-1.151 1.59,-1.512 -0.657,0.289 -1.64,0.362 -1.59,-0.648 0.036,-0.72 1.174,-0.995 1.3,-1.728 -0.637,0.596 -1.647,0.537 -2.02,1.439 -0.718,-1.04 0.43,-1.877 1.15,-2.448 -0.728,0.588 -1.659,0.75 -1.942,-0.356" />

			<!-- Provinces, etc -->

		</g>
		<!-- /Spain all -->

	</defs>
	<!-- /Defs -->


	<!-- Visible group -->
	<g id="visibleGroup">
		<!-- Aplicar cambios aquí. Ej: fill="red" opacity=".5" -->
		<use xlink:href="#Spain" transform="scale(8) translate(-1220,-310)" />
	</g>

</svg>
